<?xml version="1.0" standalone="no"?><!DOCTYPE svg PUBLIC "-//W3C//DTD SVG 1.1//EN" "http://www.w3.org/Graphics/SVG/1.1/DTD/svg11.dtd"><svg class="icon" width="200px" height="200.00px" viewBox="0 0 1024 1024" version="1.1" xmlns="http://www.w3.org/2000/svg"><path fill="#1296db" d="M928 896H138.666667a53.393333 53.393333 0 0 1-53.333334-53.333333V533.8a21.293333 21.293333 0 0 1 0.46-4.886667 20.886667 20.886667 0 0 1 1.566667-4.666666l162.033333-364.573334a53.38 53.38 0 0 1 48.733334-31.673333h470.413333a53.38 53.38 0 0 1 48.733333 31.673333l162 364.573334a20.886667 20.886667 0 0 1 1.566667 4.666666 21.293333 21.293333 0 0 1 0.46 4.886667V842.666667a53.393333 53.393333 0 0 1-53.3 53.333333zM128 554.666667v288a10.666667 10.666667 0 0 0 10.666667 10.666666h789.333333a10.666667 10.666667 0 0 0 10.666667-10.666666V554.666667h-205.186667a10.566667 10.566667 0 0 0-10.52 8.906666 192 192 0 0 1-379.253333 0A10.566667 10.566667 0 0 0 333.186667 554.666667z m11.493333-42.666667h193.693334a53.293333 53.293333 0 0 1 52.666666 44.9C397.386667 629.773333 459.413333 682.666667 533.333333 682.666667s135.946667-52.893333 147.486667-125.766667a53.293333 53.293333 0 0 1 52.666667-44.9h193.693333l-148.893333-335a10.666667 10.666667 0 0 0-9.746667-6.333333H298.126667a10.666667 10.666667 0 0 0-9.746667 6.333333z"  /></svg>