<?xml version="1.0" standalone="no"?><!DOCTYPE svg PUBLIC "-//W3C//DTD SVG 1.1//EN" "http://www.w3.org/Graphics/SVG/1.1/DTD/svg11.dtd"><svg t="1685706068723" class="icon" viewBox="0 0 1024 1024" version="1.1" xmlns="http://www.w3.org/2000/svg" p-id="899" xmlns:xlink="http://www.w3.org/1999/xlink" width="200" height="200"><path d="M443.1 132C282.9 132 153 261.9 153 422.1s129.9 290.1 290.1 290.1 290.1-129.9 290.1-290.1S603.4 132 443.1 132z m0 529.1c-132 0-238.9-107-238.9-238.9 0-132 107-238.9 238.9-238.9 132 0 238.9 107 238.9 238.9 0.1 131.9-106.9 238.9-238.9 238.9z" fill="#333333" p-id="900"></path><path d="M504.7 289l92.9 92.9-36.2 36.2-49.5-49.5v194.2h-51.2V307.2l0.6-4.6c0.9-5.8 1.8-7 6.9-13.6l5.7-3.1c12.9-6.8 14.8-5.8 30.8 3.1zM417.9 285.6v255.6l-0.7 4.6c-0.9 5.8-1.8 7-6.9 13.6l-5.7 3.1c-12.8 6.8-14.6 5.8-30.7-3.1L281 466.5l36.2-36.2 49.5 49.5V285.6h51.2z" fill="#333333" p-id="901"></path></svg>