<?xml version="1.0" standalone="no"?><!DOCTYPE svg PUBLIC "-//W3C//DTD SVG 1.1//EN" "http://www.w3.org/Graphics/SVG/1.1/DTD/svg11.dtd"><svg t="1685605913452" class="icon" viewBox="0 0 1024 1024" version="1.1" xmlns="http://www.w3.org/2000/svg" p-id="1873" xmlns:xlink="http://www.w3.org/1999/xlink" width="200" height="200"><path d="M896.993 282.294125v524.404125c0 85.3335-69.4575 154.791-154.791 154.791H281.798c-85.3335 0-154.791-69.4575-154.791-154.791V282.294125c0-14.88375-11.907-26.79075-26.79075-26.79075h-10.91475c-14.88375 0-26.79075-11.907-26.79075-26.79075v-10.91475c0-14.88375 11.907-26.79075 26.79075-26.79075h139.411125c14.88375 0 26.79075-11.907 26.79075-26.79075v-10.91475c0-50.108625 40.68225-90.790875 90.790875-90.790875h331.907625c50.108625 0 90.790875 40.68225 90.790875 90.790875v10.91475c0 14.88375 11.907 26.79075 26.79075 26.79075h139.411125c14.88375 0 26.79075 11.907 26.79075 26.79075V229.20875c0 14.88375-11.907 26.79075-26.79075 26.79075h-10.91475c-15.379875 0-27.286875 11.907-27.286875 26.294625z m-219.28725-154.791H346.29425c-14.88375 0-26.79075 11.907-26.79075 26.79075v10.91475c0 14.88375 11.907 26.79075 26.79075 26.79075h331.907625c14.88375 0 26.79075-11.907 26.79075-26.79075v-10.91475c-0.496125-14.88375-12.403125-26.79075-27.286875-26.79075z m128.496375 128.496375H217.797875c-14.88375 0-26.79075 11.907-26.79075 26.79075v524.404125c0 50.108625 40.68225 90.790875 90.790875 90.790875h459.907875c50.108625 0 90.790875-40.68225 90.790875-90.790875V282.294125c0-14.387625-11.907-26.294625-26.294625-26.294625z m-203.41125 128.00025h10.91475c14.88375 0 26.79075 11.907 26.79075 26.79075v331.907625c0 14.88375-11.907 26.79075-26.79075 26.79075h-10.91475c-14.88375 0-26.79075-11.907-26.79075-26.79075V410.7905c0-14.88375 11.907-26.79075 26.79075-26.79075z m-192.4965 0h10.91475c14.88375 0 26.79075 11.907 26.79075 26.79075v331.907625c0 14.88375-11.907 26.79075-26.79075 26.79075h-10.91475c-14.88375 0-26.79075-11.907-26.79075-26.79075V410.7905c0-14.88375 11.907-26.79075 26.79075-26.79075z" p-id="1874"></path></svg>