<?xml version="1.0" standalone="no"?><!DOCTYPE svg PUBLIC "-//W3C//DTD SVG 1.1//EN" "http://www.w3.org/Graphics/SVG/1.1/DTD/svg11.dtd"><svg t="1685605878010" class="icon" viewBox="0 0 1024 1024" version="1.1" xmlns="http://www.w3.org/2000/svg" p-id="1138" xmlns:xlink="http://www.w3.org/1999/xlink" width="200" height="200"><path d="M853.333333 469.333333h-85.333333V298.666667C768 157.28 653.386667 42.666667 512 42.666667S256 157.28 256 298.666667v170.666666h-85.333333C99.946667 469.333333 42.666667 526.613333 42.666667 597.333333v256c0 70.72 57.28 128 128 128h682.666666c70.72 0 128-57.28 128-128V597.333333c0-70.72-57.28-128-128-128zM341.333333 298.666667c0-94.250667 76.416-170.666667 170.666667-170.666667s170.666667 76.416 170.666667 170.666667v170.666666H341.333333V298.666667z m554.666667 554.666666c0 23.573333-19.093333 42.666667-42.666667 42.666667H170.666667c-23.573333 0-42.666667-19.093333-42.666667-42.666667V597.333333c0-23.573333 19.093333-42.666667 42.666667-42.666666h682.666666c23.573333 0 42.666667 19.093333 42.666667 42.666666v256z" p-id="1139"></path></svg>