<?xml version="1.0" standalone="no"?><!DOCTYPE svg PUBLIC "-//W3C//DTD SVG 1.1//EN" "http://www.w3.org/Graphics/SVG/1.1/DTD/svg11.dtd"><svg class="icon" width="200px" height="200.00px" viewBox="0 0 1024 1024" version="1.1" xmlns="http://www.w3.org/2000/svg"><path fill="#1296db" d="M885.333333 938.666667H138.666667a53.393333 53.393333 0 0 1-53.333334-53.333334V138.666667a53.393333 53.393333 0 0 1 53.333334-53.333334h746.666666a53.393333 53.393333 0 0 1 53.333334 53.333334v746.666666a53.393333 53.393333 0 0 1-53.333334 53.333334z m-600.5-42.666667H885.333333a10.666667 10.666667 0 0 0 10.666667-10.666667v-215.166666l-185.126667-185.12a10.666667 10.666667 0 0 0-15.08 0zM128 798.166667V885.333333a10.666667 10.666667 0 0 0 10.666667 10.666667h85.833333l192.666667-192.666667-89.626667-89.62a10.666667 10.666667 0 0 0-15.08 0zM138.666667 128a10.666667 10.666667 0 0 0-10.666667 10.666667v599.166666l154.286667-154.293333a53.4 53.4 0 0 1 75.426666 0L447.333333 673.166667l218.286667-218.293334a53.4 53.4 0 0 1 75.426667 0L896 609.833333V138.666667a10.666667 10.666667 0 0 0-10.666667-10.666667z m181.333333 298.666667c-58.813333 0-106.666667-47.853333-106.666667-106.666667s47.853333-106.666667 106.666667-106.666667 106.666667 47.853333 106.666667 106.666667-47.853333 106.666667-106.666667 106.666667z m0-170.666667a64 64 0 1 0 64 64 64.073333 64.073333 0 0 0-64-64z"  /></svg>