<?xml version="1.0" standalone="no"?><!DOCTYPE svg PUBLIC "-//W3C//DTD SVG 1.1//EN" "http://www.w3.org/Graphics/SVG/1.1/DTD/svg11.dtd"><svg class="icon" width="200px" height="200.00px" viewBox="0 0 1024 1024" version="1.1" xmlns="http://www.w3.org/2000/svg"><path fill="#1296db" d="M981.333333 533.333333c0 247.426667-200.573333 448-448 448s-448-200.573333-448-448 200.573333-448 448-448 448 200.573333 448 448zM533.333333 128c-223.86 0-405.333333 181.473333-405.333333 405.333333s181.473333 405.333333 405.333333 405.333334 405.333333-181.473333 405.333334-405.333334-181.473333-405.333333-405.333334-405.333333z m144.493334 548.34a21.333333 21.333333 0 0 0-0.153334-30.166667L554.666667 524.433333V256a21.333333 21.333333 0 0 0-42.666667 0v277.333333a21.333333 21.333333 0 0 0 6.326667 15.16l129.333333 128a21.333333 21.333333 0 0 0 30.166667-0.153333z"  /></svg>