<?xml version="1.0" standalone="no"?><!DOCTYPE svg PUBLIC "-//W3C//DTD SVG 1.1//EN" "http://www.w3.org/Graphics/SVG/1.1/DTD/svg11.dtd"><svg class="icon" width="200px" height="200.00px" viewBox="0 0 1024 1024" version="1.1" xmlns="http://www.w3.org/2000/svg"><path fill="#1296db" d="M320 938.666667a21.333333 21.333333 0 0 1-21.333333-21.333334V158.166667L164.42 292.42a21.333333 21.333333 0 0 1-30.173333-30.173333l170.666666-170.666667A21.333333 21.333333 0 0 1 341.333333 106.666667v810.666666a21.333333 21.333333 0 0 1-21.333333 21.333334z m399.086667-6.246667l170.666666-170.666667a21.333333 21.333333 0 0 0-30.173333-30.173333L725.333333 865.833333V106.666667a21.333333 21.333333 0 0 0-42.666666 0v810.666666a21.333333 21.333333 0 0 0 36.42 15.086667z"  /></svg>