<?xml version="1.0" standalone="no"?><!DOCTYPE svg PUBLIC "-//W3C//DTD SVG 1.1//EN" "http://www.w3.org/Graphics/SVG/1.1/DTD/svg11.dtd"><svg class="icon" width="200px" height="200.00px" viewBox="0 0 1024 1024" version="1.1" xmlns="http://www.w3.org/2000/svg"><path fill="#1296db" d="M885.333333 981.333333H138.666667a53.393333 53.393333 0 0 1-53.333334-53.333333v-32a213.333333 213.333333 0 0 1 213.333334-213.333333h426.666666a213.333333 213.333333 0 0 1 213.333334 213.333333v32a53.393333 53.393333 0 0 1-53.333334 53.333333z m-586.666666-256c-94.106667 0-170.666667 76.56-170.666667 170.666667v32a10.666667 10.666667 0 0 0 10.666667 10.666667h746.666666a10.666667 10.666667 0 0 0 10.666667-10.666667v-32c0-94.106667-76.56-170.666667-170.666667-170.666667z m469.333333-426.666666c0-141.386667-114.613333-256-256-256S256 157.28 256 298.666667s114.613333 256 256 256 256-114.613333 256-256zM512 512c-117.82 0-213.333333-95.513333-213.333333-213.333333s95.513333-213.333333 213.333333-213.333334 213.333333 95.513333 213.333333 213.333334-95.513333 213.333333-213.333333 213.333333z"  /></svg>