<?xml version="1.0" standalone="no"?><!DOCTYPE svg PUBLIC "-//W3C//DTD SVG 1.1//EN" "http://www.w3.org/Graphics/SVG/1.1/DTD/svg11.dtd"><svg class="icon" width="200px" height="200.00px" viewBox="0 0 1024 1024" version="1.1" xmlns="http://www.w3.org/2000/svg"><path fill="#515151" d="M819.2 836.266667H238.933333A85.333333 85.333333 0 0 1 153.6 750.933333V273.066667A85.333333 85.333333 0 0 1 238.933333 187.733333h251.221334a85.333333 85.333333 0 0 1 83.626666 68.266667l19.456 68.266667H819.2a85.333333 85.333333 0 0 1 85.333333 85.333333v341.333333a85.333333 85.333333 0 0 1-85.333333 85.333334zM238.933333 221.866667A51.2 51.2 0 0 0 187.733333 273.066667v477.866666A51.2 51.2 0 0 0 238.933333 802.133333h580.266667a51.2 51.2 0 0 0 51.2-51.2V409.6a51.2 51.2 0 0 0-51.2-51.2h-238.933333a17.066667 17.066667 0 0 1-16.384-12.288l-23.210667-81.92a51.882667 51.882667 0 0 0-50.517333-42.325333z"  /><path fill="#515151" d="M431.445333 634.88a54.613333 54.613333 0 1 1 54.954667-54.613333 54.613333 54.613333 0 0 1-54.954667 54.613333z m0-75.093333a20.48 20.48 0 1 0 20.821334 20.48 20.48 20.48 0 0 0-20.821334-20.48zM592.554667 535.552A54.954667 54.954667 0 1 1 648.533333 480.597333a54.954667 54.954667 0 0 1-55.978666 54.954667z m0-75.434667a20.821333 20.821333 0 1 0 20.48 20.48 20.48 20.48 0 0 0-20.48-20.48zM592.554667 734.549333a54.954667 54.954667 0 1 1 54.613333-54.613333 54.954667 54.954667 0 0 1-54.613333 54.613333z m0-75.434666a20.821333 20.821333 0 1 0 20.48 20.821333 20.821333 20.821333 0 0 0-20.48-20.821333z"  /><path fill="#515151" d="M463.530667 577.536a16.042667 16.042667 0 0 1-14.336-8.192 16.384 16.384 0 0 1 5.461333-23.210667l96.938667-60.074666a16.384 16.384 0 0 1 23.210666 5.461333 16.725333 16.725333 0 0 1-5.461333 23.552l-96.938667 59.733333a14.336 14.336 0 0 1-8.874666 2.730667zM560.469333 677.205333a17.066667 17.066667 0 0 1-8.874666-2.730666L454.656 614.4a16.725333 16.725333 0 0 1-5.461333-23.552 16.384 16.384 0 0 1 23.210666-5.461333l96.938667 59.733333a17.066667 17.066667 0 0 1-8.874667 31.744z"  /></svg>