<?xml version="1.0" standalone="no"?><!DOCTYPE svg PUBLIC "-//W3C//DTD SVG 1.1//EN" "http://www.w3.org/Graphics/SVG/1.1/DTD/svg11.dtd"><svg class="icon" width="200px" height="200.00px" viewBox="0 0 1024 1024" version="1.1" xmlns="http://www.w3.org/2000/svg"><path fill="#515151" d="M825.002667 477.866667H233.130667a79.530667 79.530667 0 1 1 0-158.72h591.872a79.530667 79.530667 0 1 1 0 158.72zM233.130667 354.645333a45.397333 45.397333 0 1 0 0 90.453334h591.872a45.397333 45.397333 0 1 0 0-90.453334z"  /><path fill="#515151" d="M776.192 853.333333H281.941333a79.872 79.872 0 0 1-62.805333-30.72 78.848 78.848 0 0 1-13.994667-68.266666l75.093334-296.277334a16.725333 16.725333 0 0 1 16.384-14.336h464.896a16.725333 16.725333 0 0 1 16.384 12.970667L853.333333 754.346667a78.848 78.848 0 0 1-13.994666 68.266666 79.872 79.872 0 0 1-63.146667 30.72zM309.930667 477.866667L238.933333 762.88a45.397333 45.397333 0 0 0 8.192 38.912 46.08 46.08 0 0 0 34.133334 17.408h494.933333a46.08 46.08 0 0 0 35.84-17.408 45.397333 45.397333 0 0 0 7.168-38.912L748.202667 477.866667zM591.530667 354.645333h-124.928a17.066667 17.066667 0 0 1-17.066667-17.066666V181.930667a79.530667 79.530667 0 1 1 159.061333 0v155.648a17.066667 17.066667 0 0 1-17.066666 17.066666z m-107.861334-34.133333h90.794667V181.930667a45.397333 45.397333 0 1 0-90.794667 0z"  /><path fill="#515151" d="M373.077333 853.333333a17.066667 17.066667 0 0 1-17.066666-17.066666v-106.154667a17.408 17.408 0 0 1 17.066666-17.066667 17.066667 17.066667 0 0 1 17.066667 17.066667v106.154667a17.066667 17.066667 0 0 1-17.066667 17.066666zM529.066667 853.333333a17.066667 17.066667 0 0 1-17.066667-17.066666v-106.154667a17.066667 17.066667 0 0 1 34.133333 0v106.154667a17.066667 17.066667 0 0 1-17.066666 17.066666zM685.056 853.333333a17.066667 17.066667 0 0 1-17.066667-17.066666v-106.154667a17.066667 17.066667 0 0 1 17.066667-17.066667 17.408 17.408 0 0 1 17.066667 17.066667v106.154667a17.066667 17.066667 0 0 1-17.066667 17.066666z"  /></svg>