<?xml version="1.0" standalone="no"?><!DOCTYPE svg PUBLIC "-//W3C//DTD SVG 1.1//EN" "http://www.w3.org/Graphics/SVG/1.1/DTD/svg11.dtd"><svg class="icon" width="200px" height="200.00px" viewBox="0 0 1024 1024" version="1.1" xmlns="http://www.w3.org/2000/svg"><path fill="#515151" d="M511.959043 1023.918087a511.959043 511.959043 0 1 1 511.959044-511.959044 335.973122 335.973122 0 0 1 0 35.837133 31.99744 31.99744 0 0 1-63.994881-7.679385A207.983361 207.983361 0 0 0 959.923206 511.959043a447.964163 447.964163 0 1 0-358.37133 439.00488 31.99744 31.99744 0 0 1 12.798976 63.99488A487.640989 487.640989 0 0 1 511.959043 1023.918087z"  /><path fill="#515151" d="M511.959043 543.956483a31.99744 31.99744 0 0 1-31.99744-31.99744V351.971842a31.99744 31.99744 0 0 1 63.99488 0V511.959043a31.99744 31.99744 0 0 1-31.99744 31.99744z"  /><path fill="#515151" d="M351.971842 639.948804a33.277338 33.277338 0 0 1-27.517798-15.358771 32.637389 32.637389 0 0 1 10.879129-44.156468l159.987201-95.99232a31.99744 31.99744 0 1 1 33.277338 55.035597l-159.987201 95.99232a30.717543 30.717543 0 0 1-16.638669 4.479642zM858.811295 975.921926a31.99744 31.99744 0 0 1-31.99744-31.99744V639.948804a31.99744 31.99744 0 0 1 31.99744-31.99744 31.99744 31.99744 0 0 1 31.99744 31.99744v303.975682a31.99744 31.99744 0 0 1-31.99744 31.99744z"  /><path fill="#515151" d="M858.811295 975.921926a32.637389 32.637389 0 0 1-23.038157-9.599232 31.99744 31.99744 0 0 1 0-44.796416l101.75186-101.75186a31.99744 31.99744 0 0 1 44.796416 0 31.99744 31.99744 0 0 1 0 45.436365l-101.111911 101.111911a31.99744 31.99744 0 0 1-22.398208 9.599232z"  /><path fill="#515151" d="M858.811295 975.921926a32.637389 32.637389 0 0 1-23.038157-9.599232l-101.111911-101.111911a31.99744 31.99744 0 0 1 0-45.436365 32.637389 32.637389 0 0 1 45.436365 0l101.111911 101.75186a30.717543 30.717543 0 0 1 0 44.796416 31.99744 31.99744 0 0 1-22.398208 9.599232z"  /></svg>