<?xml version="1.0" standalone="no"?><!DOCTYPE svg PUBLIC "-//W3C//DTD SVG 1.1//EN" "http://www.w3.org/Graphics/SVG/1.1/DTD/svg11.dtd"><svg class="icon" width="200px" height="200.00px" viewBox="0 0 1024 1024" version="1.1" xmlns="http://www.w3.org/2000/svg"><path fill="#515151" d="M482.645333 562.176a17.408 17.408 0 0 1-12.288-5.12 105.472 105.472 0 0 1 0-148.821333l149.845334-149.845334a108.544 108.544 0 0 1 149.162666 0 105.472 105.472 0 0 1 0 148.821334L648.533333 528.725333a17.066667 17.066667 0 0 1-23.893333 0 17.066667 17.066667 0 0 1 0-24.234666l121.173333-121.173334a71.338667 71.338667 0 0 0 0-102.4 72.704 72.704 0 0 0-100.693333 0l-149.845333 149.845334a71.338667 71.338667 0 0 0 0 100.693333 16.384 16.384 0 0 1 0 23.893333 17.066667 17.066667 0 0 1-12.629334 6.826667z"  /><path fill="#515151" d="M329.386667 803.498667a105.130667 105.130667 0 0 1-74.752-179.541334L375.466667 502.784a16.725333 16.725333 0 1 1 23.893333 23.893333L278.869333 648.533333a71.338667 71.338667 0 0 0 0 102.4 73.386667 73.386667 0 0 0 100.693334 0l149.845333-149.845333a71.338667 71.338667 0 0 0 0-102.4 17.066667 17.066667 0 0 1 0-24.234667 17.408 17.408 0 0 1 24.234667 0 105.472 105.472 0 0 1 0 148.821334l-149.845334 149.845333a104.789333 104.789333 0 0 1-74.410666 30.378667z"  /></svg>