<?xml version="1.0" standalone="no"?><!DOCTYPE svg PUBLIC "-//W3C//DTD SVG 1.1//EN" "http://www.w3.org/Graphics/SVG/1.1/DTD/svg11.dtd"><svg class="icon" width="200px" height="200.00px" viewBox="0 0 1024 1024" version="1.1" xmlns="http://www.w3.org/2000/svg"><path fill="#515151" d="M867.2 976a32 32 0 0 1-32-32V640a32 32 0 0 1 32-32 32 32 0 0 1 32 32v304a32 32 0 0 1-32 32z"  /><path fill="#515151" d="M768 773.12a32 32 0 0 1-22.4-54.4l99.2-101.12a32 32 0 0 1 45.44 0 32 32 0 0 1 0 44.8l-101.76 101.76a32 32 0 0 1-20.48 8.96z"  /><path fill="#515151" d="M968.96 773.12a34.56 34.56 0 0 1-23.04-8.96l-101.12-101.76a30.72 30.72 0 0 1 0-44.8 32 32 0 0 1 45.44 0l101.12 101.12a32 32 0 0 1 0 45.44 34.56 34.56 0 0 1-22.4 8.96zM512 563.84a186.88 186.88 0 0 1-85.12-19.84L71.68 366.72a88.32 88.32 0 0 1 0-157.44L426.88 32a192 192 0 0 1 170.24 0l355.2 177.28a88.32 88.32 0 0 1 0 157.44L597.12 544A186.88 186.88 0 0 1 512 563.84z m0-487.68a128 128 0 0 0-56.96 13.44L100.48 266.88a23.04 23.04 0 0 0 0 42.24L455.04 486.4a128 128 0 0 0 113.92 0l354.56-177.28a23.04 23.04 0 0 0 0-42.24L568.96 89.6A128 128 0 0 0 512 76.16zM512 787.84A186.88 186.88 0 0 1 426.88 768L71.68 590.72a32.64 32.64 0 0 1-14.08-42.88 32 32 0 0 1 42.88-14.72l354.56 177.28a128 128 0 0 0 113.92 0l50.56-24.96a32.64 32.64 0 0 1 42.88 14.08 32 32 0 0 1-14.72 42.88l-50.56 25.6a186.88 186.88 0 0 1-85.12 19.84zM512 1011.84a186.88 186.88 0 0 1-85.12-19.84l-355.2-177.28a32.64 32.64 0 0 1-14.08-42.88 32 32 0 0 1 42.88-14.72l354.56 177.28a128 128 0 0 0 113.92 0l50.56-24.96a32 32 0 1 1 28.16 56.96l-50.56 25.6a186.88 186.88 0 0 1-85.12 19.84z"  /></svg>