<?xml version="1.0" standalone="no"?><!DOCTYPE svg PUBLIC "-//W3C//DTD SVG 1.1//EN" "http://www.w3.org/Graphics/SVG/1.1/DTD/svg11.dtd"><svg class="icon" width="200px" height="200.00px" viewBox="0 0 1024 1024" version="1.1" xmlns="http://www.w3.org/2000/svg"><path fill="#515151" d="M522.581333 238.933333a102.4 102.4 0 1 1-102.4 102.4 102.4 102.4 0 0 1 102.4-102.4m0-34.133333a136.533333 136.533333 0 1 0 136.533334 136.533333 136.533333 136.533333 0 0 0-136.533334-136.533333zM522.581333 559.786667c119.466667 0 217.429333 76.8 221.525334 172.373333-10.922667 18.773333-66.218667 52.906667-221.525334 52.906667s-210.944-34.133333-221.866666-52.565334c4.437333-95.573333 102.4-172.373333 221.866666-172.373333m0-34.133333c-141.312 0-256 95.573333-256 212.992 0 0 15.018667 80.213333 256 80.213333s256-80.213333 256-80.213333c0-117.418667-114.688-212.992-256-212.992z"  /></svg>