<?xml version="1.0" standalone="no"?><!DOCTYPE svg PUBLIC "-//W3C//DTD SVG 1.1//EN" "http://www.w3.org/Graphics/SVG/1.1/DTD/svg11.dtd"><svg class="icon" width="200px" height="200.00px" viewBox="0 0 1024 1024" version="1.1" xmlns="http://www.w3.org/2000/svg"><path fill="#515151" d="M689.834667 456.362667h-197.973334a17.408 17.408 0 0 1-17.066666-17.066667 17.066667 17.066667 0 0 1 17.066666-17.066667h197.973334a17.066667 17.066667 0 0 1 17.066666 17.066667 17.408 17.408 0 0 1-17.066666 17.066667zM689.834667 575.146667h-197.973334a17.408 17.408 0 0 1-17.066666-17.066667 17.066667 17.066667 0 0 1 17.066666-17.066667h197.973334a17.066667 17.066667 0 0 1 17.066666 17.066667 17.408 17.408 0 0 1-17.066666 17.066667zM689.834667 693.930667h-197.973334a17.408 17.408 0 0 1-17.066666-17.066667 17.066667 17.066667 0 0 1 17.066666-17.066667h197.973334a17.066667 17.066667 0 0 1 17.066666 17.066667 17.408 17.408 0 0 1-17.066666 17.066667z"  /><path fill="#515151" d="M728.064 822.954667h-298.325333a85.333333 85.333333 0 0 1-85.333334-85.333334V372.736a85.333333 85.333333 0 0 1 85.333334-85.333333h298.325333a85.333333 85.333333 0 0 1 85.333333 85.333333v364.885333a85.333333 85.333333 0 0 1-85.333333 85.333334zM429.738667 321.536a51.2 51.2 0 0 0-51.2 51.2v364.885333a51.2 51.2 0 0 0 51.2 51.2h298.325333a51.2 51.2 0 0 0 51.2-51.2V372.736a51.2 51.2 0 0 0-51.2-51.2z"  /><path fill="#515151" d="M303.786667 722.602667h-9.216a83.968 83.968 0 0 1-83.968-83.626667V271.018667a83.968 83.968 0 0 1 83.968-83.968h301.056a83.626667 83.626667 0 0 1 72.704 41.984 17.066667 17.066667 0 0 1-29.696 17.066666 49.152 49.152 0 0 0-43.008-24.917333H294.570667a49.834667 49.834667 0 0 0-49.834667 49.834667v367.957333a49.834667 49.834667 0 0 0 49.834667 49.493333h9.216a17.408 17.408 0 0 1 17.066666 17.066667 17.066667 17.066667 0 0 1-17.066666 17.066667z"  /></svg>