<?xml version="1.0" standalone="no"?><!DOCTYPE svg PUBLIC "-//W3C//DTD SVG 1.1//EN" "http://www.w3.org/Graphics/SVG/1.1/DTD/svg11.dtd"><svg class="icon" width="200px" height="200.00px" viewBox="0 0 1024 1024" version="1.1" xmlns="http://www.w3.org/2000/svg"><path fill="#515151" d="M448.512 371.029333H318.464a17.066667 17.066667 0 0 1 0-34.133333h130.048a17.066667 17.066667 0 0 1 0 34.133333z"  /><path fill="#515151" d="M537.6 813.397333H269.653333a84.992 84.992 0 0 1-81.92-87.722666V230.058667a84.992 84.992 0 0 1 81.92-87.722667h238.933334a83.626667 83.626667 0 0 1 80.213333 70.656l18.432 70.656h215.381333a85.333333 85.333333 0 0 1 81.92 88.064V443.733333a17.066667 17.066667 0 0 1-34.133333 0v-72.021333a51.2 51.2 0 0 0-47.786667-53.930667h-227.669333a16.384 16.384 0 0 1-14.677333-12.629333l-23.893334-84.650667a50.176 50.176 0 0 0-47.104-44.032h-238.933333A50.858667 50.858667 0 0 0 221.866667 230.058667v495.616a50.858667 50.858667 0 0 0 47.786666 53.589333h267.946667a17.066667 17.066667 0 0 1 17.066667 17.066667 17.066667 17.066667 0 0 1-17.066667 17.066666z"  /><path fill="#515151" d="M736.597333 813.397333a167.936 167.936 0 1 1 167.936-167.936 167.936 167.936 0 0 1-167.936 167.936z m0-301.738666a133.802667 133.802667 0 1 0 133.802667 133.802666A134.144 134.144 0 0 0 736.597333 512z"  /><path fill="#515151" d="M786.773333 662.528h-100.352a17.066667 17.066667 0 0 1-17.066666-17.066667 17.066667 17.066667 0 0 1 17.066666-17.066666h100.352a17.066667 17.066667 0 0 1 17.066667 17.066666 17.066667 17.066667 0 0 1-17.066667 17.066667z"  /><path fill="#515151" d="M736.597333 713.045333a17.066667 17.066667 0 0 1-17.066666-17.066666v-100.693334a17.066667 17.066667 0 1 1 34.133333 0v100.693334a17.066667 17.066667 0 0 1-17.066667 17.066666z"  /></svg>