<?xml version="1.0" standalone="no"?><!DOCTYPE svg PUBLIC "-//W3C//DTD SVG 1.1//EN" "http://www.w3.org/Graphics/SVG/1.1/DTD/svg11.dtd"><svg class="icon" width="200px" height="200.00px" viewBox="0 0 1024 1024" version="1.1" xmlns="http://www.w3.org/2000/svg"><path fill="#515151" d="M768 803.84h-512a85.333333 85.333333 0 0 1-85.333333-85.333333V307.2a85.333333 85.333333 0 0 1 85.333333-85.333333h512A85.333333 85.333333 0 0 1 853.333333 307.2v413.013333a85.333333 85.333333 0 0 1-85.333333 83.626667z m-512-549.546667A51.2 51.2 0 0 0 204.8 307.2v413.013333a51.2 51.2 0 0 0 51.2 51.2h512a51.2 51.2 0 0 0 51.2-51.2V307.2a51.2 51.2 0 0 0-51.2-51.2z"  /><path fill="#515151" d="M489.472 657.749333a17.066667 17.066667 0 0 1-11.264-4.096 17.408 17.408 0 0 1 0-24.234666L648.533333 432.810667a78.165333 78.165333 0 0 1 56.32-26.624 75.093333 75.093333 0 0 1 57.685334 22.869333l85.333333 85.333333a16.725333 16.725333 0 1 1-23.893333 23.893334l-85.333334-85.333334a46.421333 46.421333 0 0 0-34.133333-12.629333 42.666667 42.666667 0 0 0-31.744 15.018667l-170.666667 196.608a15.701333 15.701333 0 0 1-12.629333 5.802666z"  /><path fill="#515151" d="M193.194667 720.896a16.042667 16.042667 0 0 1-11.946667-4.096 17.066667 17.066667 0 0 1 0-24.234667l170.666667-170.666666a77.824 77.824 0 0 1 110.592 0l68.266666 68.266666a16.725333 16.725333 0 1 1-23.893333 23.893334l-69.973333-68.266667A44.032 44.032 0 0 0 375.466667 546.133333l-170.666667 170.666667a16.042667 16.042667 0 0 1-11.605333 4.096zM350.890667 418.474667A59.050667 59.050667 0 1 1 409.6 359.765333a58.709333 58.709333 0 0 1-58.709333 58.709334z m0-83.626667a24.917333 24.917333 0 1 0 24.576 24.917333 24.917333 24.917333 0 0 0-24.576-24.917333z"  /></svg>