<?xml version="1.0" standalone="no"?><!DOCTYPE svg PUBLIC "-//W3C//DTD SVG 1.1//EN" "http://www.w3.org/Graphics/SVG/1.1/DTD/svg11.dtd"><svg class="icon" width="200px" height="200.00px" viewBox="0 0 1024 1024" version="1.1" xmlns="http://www.w3.org/2000/svg"><path fill="#515151" d="M772.096 815.445333H251.904A81.237333 81.237333 0 0 1 170.666667 734.549333V369.664a81.578667 81.578667 0 0 1 81.237333-81.237333h71.338667V273.066667a80.896 80.896 0 0 1 80.896-80.896h215.381333A80.896 80.896 0 0 1 700.416 273.066667v13.994666h71.68A81.578667 81.578667 0 0 1 853.333333 369.664v364.885333a81.237333 81.237333 0 0 1-81.237333 80.896zM251.904 322.56A47.104 47.104 0 0 0 204.8 369.664v364.885333a46.762667 46.762667 0 0 0 47.104 46.762667h520.192A46.762667 46.762667 0 0 0 819.2 734.549333V369.664a47.104 47.104 0 0 0-47.104-47.104H682.666667a17.066667 17.066667 0 0 1-17.066667-17.066667V273.066667a46.762667 46.762667 0 0 0-46.762667-46.762667h-214.698666A46.762667 46.762667 0 0 0 357.376 273.066667v34.133333a17.066667 17.066667 0 0 1-17.066667 17.066667z"  /><path fill="#515151" d="M512 672.768a134.485333 134.485333 0 1 1 134.485333-134.485333A134.826667 134.826667 0 0 1 512 672.768z m0-234.837333a100.352 100.352 0 1 0 100.352 100.352A100.352 100.352 0 0 0 512 437.930667z"  /></svg>