<?xml version="1.0" standalone="no"?><!DOCTYPE svg PUBLIC "-//W3C//DTD SVG 1.1//EN" "http://www.w3.org/Graphics/SVG/1.1/DTD/svg11.dtd"><svg class="icon" width="200px" height="200.00px" viewBox="0 0 1024 1024" version="1.1" xmlns="http://www.w3.org/2000/svg"><path fill="#515151" d="M320.853333 576.853333a64.853333 64.853333 0 1 1 64.853334-64.853333 64.853333 64.853333 0 0 1-64.853334 64.853333z m0-95.573333a30.72 30.72 0 1 0 30.72 30.72 30.72 30.72 0 0 0-30.72-30.72zM512 576.853333a64.853333 64.853333 0 1 1 64.853333-64.853333 64.853333 64.853333 0 0 1-64.853333 64.853333z m0-95.573333a30.72 30.72 0 1 0 30.72 30.72 30.72 30.72 0 0 0-30.72-30.72zM703.146667 576.853333a64.853333 64.853333 0 1 1 64.853333-64.853333 64.853333 64.853333 0 0 1-64.853333 64.853333z m0-95.573333a30.72 30.72 0 1 0 30.72 30.72 30.72 30.72 0 0 0-30.72-30.72z"  /></svg>