<?xml version="1.0" standalone="no"?><!DOCTYPE svg PUBLIC "-//W3C//DTD SVG 1.1//EN" "http://www.w3.org/Graphics/SVG/1.1/DTD/svg11.dtd"><svg class="icon" width="200px" height="200.00px" viewBox="0 0 1024 1024" version="1.1" xmlns="http://www.w3.org/2000/svg"><path fill="#515151" d="M699.733333 824.32h-341.333333a51.2 51.2 0 0 1-51.2-51.2V426.666667a51.2 51.2 0 0 1 51.2-51.2h341.333333a51.2 51.2 0 0 1 51.2 51.2v346.453333a51.2 51.2 0 0 1-51.2 51.2zM358.4 409.6a17.066667 17.066667 0 0 0-17.066667 17.066667v346.453333a17.066667 17.066667 0 0 0 17.066667 17.066667h341.333333a17.066667 17.066667 0 0 0 17.066667-17.066667V426.666667a17.066667 17.066667 0 0 0-17.066667-17.066667z"  /><path fill="#515151" d="M460.8 745.472a17.066667 17.066667 0 0 1-17.066667-17.066667V539.306667a17.066667 17.066667 0 0 1 34.133334 0v189.098666a17.066667 17.066667 0 0 1-17.066667 17.066667zM597.333333 745.472a17.066667 17.066667 0 0 1-17.066666-17.066667V539.306667a17.066667 17.066667 0 1 1 34.133333 0v189.098666a17.066667 17.066667 0 0 1-17.066667 17.066667zM776.533333 307.2H281.6a17.066667 17.066667 0 0 1 0-34.133333h494.933333a17.066667 17.066667 0 0 1 0 34.133333z"  /><path fill="#515151" d="M631.466667 307.2h-204.8a17.066667 17.066667 0 0 1-17.066667-17.066667 102.4 102.4 0 0 1 102.4-102.4h34.133333a102.4 102.4 0 0 1 102.4 102.4 17.066667 17.066667 0 0 1-17.066666 17.066667z m-185.685334-34.133333h166.570667A68.266667 68.266667 0 0 0 546.133333 221.866667h-34.133333A68.266667 68.266667 0 0 0 445.781333 273.066667z"  /></svg>