<?xml version="1.0" standalone="no"?><!DOCTYPE svg PUBLIC "-//W3C//DTD SVG 1.1//EN" "http://www.w3.org/Graphics/SVG/1.1/DTD/svg11.dtd"><svg class="icon" width="200px" height="200.00px" viewBox="0 0 1024 1024" version="1.1" xmlns="http://www.w3.org/2000/svg"><path fill="#515151" d="M512 836.266667a324.266667 324.266667 0 1 1 264.874667-512 16.725333 16.725333 0 0 1-4.096 23.552 17.066667 17.066667 0 0 1-23.552-3.754667 290.133333 290.133333 0 1 0 0 335.189333 17.066667 17.066667 0 0 1 23.552-3.754666 16.725333 16.725333 0 0 1 4.096 23.552A325.973333 325.973333 0 0 1 512 836.266667z"  /><path fill="#515151" d="M761.173333 352.938667a17.066667 17.066667 0 0 1-16.384-17.749334L750.933333 216.746667a15.701333 15.701333 0 0 1 17.749334-16.042667 17.066667 17.066667 0 0 1 16.384 17.749333l-6.826667 118.101334a17.066667 17.066667 0 0 1-17.066667 16.384z"  /><path fill="#515151" d="M761.173333 352.938667l-118.101333-5.12a17.066667 17.066667 0 0 1-16.384-17.749334 16.042667 16.042667 0 0 1 18.090667-16.384l117.76 5.461334a17.066667 17.066667 0 0 1 0 34.133333z"  /></svg>