<?xml version="1.0" standalone="no"?><!DOCTYPE svg PUBLIC "-//W3C//DTD SVG 1.1//EN" "http://www.w3.org/Graphics/SVG/1.1/DTD/svg11.dtd"><svg class="icon" width="200px" height="200.00px" viewBox="0 0 1024 1024" version="1.1" xmlns="http://www.w3.org/2000/svg"><path fill="#515151" d="M858.88 976a32 32 0 0 1-32-32V640a32 32 0 0 1 32-32 32 32 0 0 1 32 32v304a32 32 0 0 1-32 32z"  /><path fill="#515151" d="M757.12 773.12a34.56 34.56 0 0 1-22.4-8.96 32 32 0 0 1 0-45.44l101.12-101.12a32 32 0 0 1 45.44 0 30.72 30.72 0 0 1 0 44.8l-101.12 101.76a34.56 34.56 0 0 1-23.04 8.96z"  /><path fill="#515151" d="M960 773.12a32 32 0 0 1-22.4-8.96l-101.76-101.76a32 32 0 0 1 0-44.8 32 32 0 0 1 45.44 0l101.12 101.12a32 32 0 0 1-22.4 54.4zM672 1024h-512A160 160 0 0 1 0 864V192a192 192 0 0 1 192-192h544A160 160 0 0 1 896 160v192a32 32 0 0 1-64 0v-192A96 96 0 0 0 736 64H192a128 128 0 0 0-128 128v672A96 96 0 0 0 160 960h512a32 32 0 0 1 0 64z"  /><path fill="#515151" d="M684.16 280.96H200.96a32 32 0 0 1-32-32 32 32 0 0 1 32-32h483.2a32 32 0 0 1 32 32 32 32 0 0 1-32 32zM586.24 508.16h-384a32 32 0 0 1-32-32 32 32 0 0 1 32-32h384a32 32 0 0 1 32 32 32 32 0 0 1-32 32zM448 735.36H200.96a32 32 0 0 1 0-64H448a32 32 0 0 1 0 64z"  /></svg>