<?xml version="1.0" standalone="no"?><!DOCTYPE svg PUBLIC "-//W3C//DTD SVG 1.1//EN" "http://www.w3.org/Graphics/SVG/1.1/DTD/svg11.dtd"><svg class="icon" width="200px" height="200.00px" viewBox="0 0 1024 1024" version="1.1" xmlns="http://www.w3.org/2000/svg"><path fill="#515151" d="M275.2 288H140.8A76.8 76.8 0 0 1 64 211.2V76.8A76.8 76.8 0 0 1 140.8 0h134.4a76.8 76.8 0 0 1 76.8 76.8v134.4a76.8 76.8 0 0 1-76.8 76.8zM140.8 64a12.8 12.8 0 0 0-12.8 12.8v134.4a12.8 12.8 0 0 0 12.8 12.8h134.4a12.8 12.8 0 0 0 12.8-12.8V76.8a12.8 12.8 0 0 0-12.8-12.8zM275.2 656H140.8A76.8 76.8 0 0 1 64 579.2V448a76.8 76.8 0 0 1 76.8-76.8h134.4A76.8 76.8 0 0 1 352 448v134.4a76.8 76.8 0 0 1-76.8 73.6z m-134.4-224A12.8 12.8 0 0 0 128 448v134.4a12.8 12.8 0 0 0 12.8 12.8h134.4a12.8 12.8 0 0 0 12.8-12.8V448a12.8 12.8 0 0 0-12.8-12.8zM275.2 1024H140.8A76.8 76.8 0 0 1 64 947.2v-134.4a76.8 76.8 0 0 1 76.8-76.8h134.4a76.8 76.8 0 0 1 76.8 76.8v134.4A76.8 76.8 0 0 1 275.2 1024z m-134.4-224a12.8 12.8 0 0 0-12.8 12.8v134.4a12.8 12.8 0 0 0 12.8 12.8h134.4a12.8 12.8 0 0 0 12.8-12.8v-134.4a12.8 12.8 0 0 0-12.8-12.8zM928 176h-384a32 32 0 0 1 0-64h384a32 32 0 0 1 0 64zM928 912h-384a32 32 0 0 1 0-64h384a32 32 0 0 1 0 64zM928 544h-384a32 32 0 0 1 0-64h384a32 32 0 0 1 0 64z"  /></svg>