<?xml version="1.0" standalone="no"?><!DOCTYPE svg PUBLIC "-//W3C//DTD SVG 1.1//EN" "http://www.w3.org/Graphics/SVG/1.1/DTD/svg11.dtd"><svg class="icon" width="200px" height="200.00px" viewBox="0 0 1024 1024" version="1.1" xmlns="http://www.w3.org/2000/svg"><path fill="#515151" d="M625.664 814.762667H309.589333a96.256 96.256 0 0 1-96.256-96.256V302.08A114.346667 114.346667 0 0 1 327.68 187.733333h337.237333a96.256 96.256 0 0 1 96.256 96.256v118.442667a17.066667 17.066667 0 1 1-34.133333 0V283.989333a61.781333 61.781333 0 0 0-62.122667-62.122666H327.68a80.213333 80.213333 0 0 0-80.213333 80.213333v416.426667a62.122667 62.122667 0 0 0 62.122666 62.122666h316.074667a17.066667 17.066667 0 0 1 17.066667 17.066667 17.408 17.408 0 0 1-17.066667 17.066667z"  /><path fill="#515151" d="M633.173333 355.669333H334.848a17.066667 17.066667 0 0 1 0-34.133333h298.325333a17.066667 17.066667 0 0 1 0 34.133333zM485.717333 495.957333H334.848a17.066667 17.066667 0 0 1-17.066667-17.066666 17.066667 17.066667 0 0 1 17.066667-17.066667h150.869333a17.066667 17.066667 0 0 1 17.066667 17.066667 17.066667 17.066667 0 0 1-17.066667 17.066666zM485.717333 636.586667H334.848a17.066667 17.066667 0 0 1-17.066667-17.066667 17.066667 17.066667 0 0 1 17.066667-17.066667h150.869333a17.066667 17.066667 0 0 1 17.066667 17.066667 17.066667 17.066667 0 0 1-17.066667 17.066667zM652.288 664.576a106.496 106.496 0 1 1 106.496-106.496 106.496 106.496 0 0 1-106.496 106.496z m0-178.858667a72.362667 72.362667 0 1 0 72.362667 72.362667 72.362667 72.362667 0 0 0-72.362667-72.362667z"  /><path fill="#515151" d="M785.066667 785.066667a17.066667 17.066667 0 0 1-14.677334-8.533334l-79.530666-136.533333a17.408 17.408 0 0 1 6.144-23.552 17.066667 17.066667 0 0 1 23.210666 6.485333l79.530667 136.533334a17.066667 17.066667 0 0 1-6.144 23.210666 20.138667 20.138667 0 0 1-8.533333 2.389334z"  /></svg>