<?xml version="1.0" standalone="no"?><!DOCTYPE svg PUBLIC "-//W3C//DTD SVG 1.1//EN" "http://www.w3.org/Graphics/SVG/1.1/DTD/svg11.dtd"><svg class="icon" width="200px" height="200.00px" viewBox="0 0 1024 1024" version="1.1" xmlns="http://www.w3.org/2000/svg"><path fill="#515151" d="M693.930667 838.656a65.194667 65.194667 0 0 1-31.744-7.850667l-136.533334-71.338666-136.533333 71.338666a68.266667 68.266667 0 0 1-98.645333-71.68l25.941333-150.869333-108.202667-106.837333a68.266667 68.266667 0 0 1 37.888-116.394667l151.552-21.845333 68.266667-136.533334a68.266667 68.266667 0 0 1 121.856 0l68.266667 136.533334 151.552 21.845333a68.266667 68.266667 0 0 1 37.888 116.394667l-109.909334 106.837333 25.941334 150.869333a68.266667 68.266667 0 0 1-26.965334 68.266667 68.266667 68.266667 0 0 1-40.618666 11.264zM526.677333 221.866667a34.133333 34.133333 0 0 0-30.72 19.114666l-71.68 145.066667a17.408 17.408 0 0 1-12.970666 9.557333l-160.426667 23.210667a34.133333 34.133333 0 0 0-27.306667 23.210667 34.133333 34.133333 0 0 0 8.533334 34.133333l116.053333 112.981333a17.066667 17.066667 0 0 1 5.12 15.36l-27.648 159.744a34.133333 34.133333 0 0 0 13.653333 34.133334 34.133333 34.133333 0 0 0 35.84 2.730666l143.36-75.434666a16.725333 16.725333 0 0 1 16.042667 0l143.36 75.434666a34.133333 34.133333 0 0 0 35.84-2.730666 34.133333 34.133333 0 0 0 13.653333-34.133334l-27.648-159.744a18.090667 18.090667 0 0 1 5.12-15.36l116.053334-111.274666a34.133333 34.133333 0 0 0 8.533333-34.133334 34.133333 34.133333 0 0 0-27.306667-23.210666l-160.426666-23.210667a17.408 17.408 0 0 1-12.970667-9.557333l-71.68-145.066667a34.133333 34.133333 0 0 0-30.378667-20.821333z"  /></svg>