<?xml version="1.0" standalone="no"?><!DOCTYPE svg PUBLIC "-//W3C//DTD SVG 1.1//EN" "http://www.w3.org/Graphics/SVG/1.1/DTD/svg11.dtd"><svg class="icon" width="200px" height="200.00px" viewBox="0 0 1024 1024" version="1.1" xmlns="http://www.w3.org/2000/svg"><path fill="#515151" d="M512 1024a512 512 0 1 1 512-512 32 32 0 0 1-32 32h-448v448a32 32 0 0 1-32 32zM512 64a448 448 0 0 0-32 896V512a32 32 0 0 1 32-32h448A448 448 0 0 0 512 64z"  /><path fill="#515151" d="M858.88 976a32 32 0 0 1-32-32V640a32 32 0 0 1 32-32 32 32 0 0 1 32 32v304a32 32 0 0 1-32 32z"  /><path fill="#515151" d="M757.12 773.12a34.56 34.56 0 0 1-22.4-8.96 32 32 0 0 1 0-45.44l101.12-101.12a32 32 0 0 1 45.44 0 30.72 30.72 0 0 1 0 44.8l-101.12 101.76a34.56 34.56 0 0 1-23.04 8.96z"  /><path fill="#515151" d="M960 773.12a32 32 0 0 1-22.4-8.96l-101.76-101.76a32 32 0 0 1 0-44.8 32 32 0 0 1 45.44 0l101.12 101.12a32 32 0 0 1-22.4 54.4z"  /></svg>