<?xml version="1.0" standalone="no"?><!DOCTYPE svg PUBLIC "-//W3C//DTD SVG 1.1//EN" "http://www.w3.org/Graphics/SVG/1.1/DTD/svg11.dtd"><svg class="icon" width="200px" height="200.00px" viewBox="0 0 1024 1024" version="1.1" xmlns="http://www.w3.org/2000/svg"><path fill="#515151" d="M346.88 448H101.12A101.12 101.12 0 0 1 0 346.88V101.12A101.12 101.12 0 0 1 101.12 0h245.76A101.12 101.12 0 0 1 448 101.12v245.76A101.12 101.12 0 0 1 346.88 448zM101.12 64a37.12 37.12 0 0 0-37.12 37.12v245.76a37.12 37.12 0 0 0 37.12 37.12h245.76A37.12 37.12 0 0 0 384 346.88V101.12A37.12 37.12 0 0 0 346.88 64zM346.88 1024H101.12A101.12 101.12 0 0 1 0 922.88v-245.76A101.12 101.12 0 0 1 101.12 576h245.76A101.12 101.12 0 0 1 448 677.12v245.76A101.12 101.12 0 0 1 346.88 1024z m-245.76-384a37.12 37.12 0 0 0-37.12 37.12v245.76a37.12 37.12 0 0 0 37.12 37.12h245.76a37.12 37.12 0 0 0 37.12-37.12v-245.76a37.12 37.12 0 0 0-37.12-37.12zM922.88 448h-245.76A101.12 101.12 0 0 1 576 346.88V101.12A101.12 101.12 0 0 1 677.12 0h245.76A101.12 101.12 0 0 1 1024 101.12v245.76A101.12 101.12 0 0 1 922.88 448z m-245.76-384a37.12 37.12 0 0 0-37.12 37.12v245.76a37.12 37.12 0 0 0 37.12 37.12h245.76a37.12 37.12 0 0 0 37.12-37.12V101.12a37.12 37.12 0 0 0-37.12-37.12zM922.88 1024h-245.76A101.12 101.12 0 0 1 576 922.88v-245.76A101.12 101.12 0 0 1 677.12 576h245.76A101.12 101.12 0 0 1 1024 677.12v245.76A101.12 101.12 0 0 1 922.88 1024z m-245.76-384a37.12 37.12 0 0 0-37.12 37.12v245.76a37.12 37.12 0 0 0 37.12 37.12h245.76a37.12 37.12 0 0 0 37.12-37.12v-245.76a37.12 37.12 0 0 0-37.12-37.12z"  /></svg>