<?xml version="1.0" standalone="no"?><!DOCTYPE svg PUBLIC "-//W3C//DTD SVG 1.1//EN" "http://www.w3.org/Graphics/SVG/1.1/DTD/svg11.dtd"><svg class="icon" width="200px" height="200.00px" viewBox="0 0 1024 1024" version="1.1" xmlns="http://www.w3.org/2000/svg"><path fill="#515151" d="M506.88 534.186667a18.432 18.432 0 0 1-12.288-4.778667 84.650667 84.650667 0 0 1 0-118.784l113.322667-112.981333a85.674667 85.674667 0 0 1 118.442666 0 83.626667 83.626667 0 0 1 0 118.442666l-91.477333 91.477334a17.066667 17.066667 0 0 1-24.234667 0 17.066667 17.066667 0 0 1 0-23.893334l91.818667-91.818666a49.493333 49.493333 0 0 0 14.336-34.133334 50.176 50.176 0 0 0-14.336-34.133333 51.541333 51.541333 0 0 0-70.314667 0l-113.322666 111.274667a49.493333 49.493333 0 0 0 0 70.314666 17.066667 17.066667 0 0 1 0 24.234667 17.749333 17.749333 0 0 1-11.946667 4.778667z"  /><path fill="#515151" d="M390.826667 716.8a83.626667 83.626667 0 0 1-59.050667-143.018667l91.477333-91.477333a17.066667 17.066667 0 0 1 24.234667 0 17.066667 17.066667 0 0 1 0 23.893333l-91.818667 91.818667a49.493333 49.493333 0 0 0-14.336 34.133333 50.176 50.176 0 0 0 14.336 34.133334 51.541333 51.541333 0 0 0 70.314667 0l113.322667-113.322667a49.493333 49.493333 0 0 0 0-70.314667 17.066667 17.066667 0 0 1 0-24.234666 17.408 17.408 0 0 1 24.234666 0 84.650667 84.650667 0 0 1 0 118.784l-113.322666 112.981333a82.261333 82.261333 0 0 1-59.392 26.624z"  /><path fill="#515151" d="M529.066667 887.466667a392.533333 392.533333 0 1 1 277.504-115.029334A391.168 391.168 0 0 1 529.066667 887.466667z m0-750.933334a358.4 358.4 0 1 0 253.269333 105.130667A356.352 356.352 0 0 0 529.066667 136.533333z"  /><path fill="#515151" d="M426.666667 409.6a16.042667 16.042667 0 0 1-11.946667-5.12L251.562667 241.664a17.066667 17.066667 0 1 1 24.234666-24.234667l162.816 163.157334a16.384 16.384 0 0 1 0 23.893333 16.042667 16.042667 0 0 1-11.946666 5.12zM794.624 777.557333a16.042667 16.042667 0 0 1-11.946667-5.12l-163.157333-163.157333a16.725333 16.725333 0 0 1 23.893333-23.893333l163.157334 163.157333a16.384 16.384 0 0 1 0 23.893333 16.042667 16.042667 0 0 1-11.946667 5.12z"  /></svg>