<?xml version="1.0" standalone="no"?><!DOCTYPE svg PUBLIC "-//W3C//DTD SVG 1.1//EN" "http://www.w3.org/Graphics/SVG/1.1/DTD/svg11.dtd"><svg class="icon" width="200px" height="200.00px" viewBox="0 0 1024 1024" version="1.1" xmlns="http://www.w3.org/2000/svg"><path fill="#515151" d="M802.133333 529.066667h-580.266666a17.066667 17.066667 0 0 1 0-34.133334h580.266666a17.066667 17.066667 0 0 1 0 34.133334z"  /><path fill="#515151" d="M512 819.2a17.066667 17.066667 0 0 1-17.066667-17.066667v-580.266666a17.066667 17.066667 0 0 1 34.133334 0v580.266666a17.066667 17.066667 0 0 1-17.066667 17.066667z"  /><path fill="#515151" d="M512 819.2a16.042667 16.042667 0 0 1-11.946667-5.12 16.384 16.384 0 0 1 0-23.893333l88.064-88.405334a17.066667 17.066667 0 0 1 24.234667 24.234667l-88.405333 88.064A16.042667 16.042667 0 0 1 512 819.2z"  /><path fill="#515151" d="M512 819.2a16.042667 16.042667 0 0 1-11.946667-5.12l-88.405333-88.064a17.066667 17.066667 0 1 1 24.234667-24.234667l88.064 88.405334a16.384 16.384 0 0 1 0 23.893333 16.042667 16.042667 0 0 1-11.946667 5.12zM600.064 326.997333a18.432 18.432 0 0 1-11.946667-4.778666l-88.064-88.405334a16.725333 16.725333 0 0 1 23.893334-23.893333l88.405333 88.064a17.408 17.408 0 0 1 0 24.234667 18.432 18.432 0 0 1-12.288 4.778666z"  /><path fill="#515151" d="M423.936 326.997333a18.432 18.432 0 0 1-12.288-4.778666 17.408 17.408 0 0 1 0-24.234667l88.405333-88.064a16.725333 16.725333 0 0 1 23.893334 23.893333l-88.064 88.405334a18.432 18.432 0 0 1-11.946667 4.778666zM802.133333 529.066667a16.042667 16.042667 0 0 1-11.946666-5.12l-88.405334-88.064a17.066667 17.066667 0 1 1 24.234667-24.234667l88.064 88.405333a16.384 16.384 0 0 1 0 23.893334 16.042667 16.042667 0 0 1-11.946667 5.12z"  /><path fill="#515151" d="M714.069333 617.130667a18.432 18.432 0 0 1-12.288-4.778667 17.408 17.408 0 0 1 0-24.234667l88.405334-88.064a16.725333 16.725333 0 1 1 23.893333 23.893334l-88.064 88.405333a18.432 18.432 0 0 1-11.946667 4.778667zM221.866667 529.066667a16.042667 16.042667 0 0 1-11.946667-5.12 16.384 16.384 0 0 1 0-23.893334l88.064-88.405333a17.066667 17.066667 0 1 1 24.234667 24.234667l-88.405334 88.064a16.042667 16.042667 0 0 1-11.946666 5.12z"  /><path fill="#515151" d="M309.930667 617.130667a18.432 18.432 0 0 1-11.946667-4.778667l-88.064-88.405333a16.725333 16.725333 0 0 1 23.893333-23.893334l88.405334 88.064a17.408 17.408 0 0 1 0 24.234667 18.432 18.432 0 0 1-12.288 4.778667z"  /></svg>