<?xml version="1.0" standalone="no"?><!DOCTYPE svg PUBLIC "-//W3C//DTD SVG 1.1//EN" "http://www.w3.org/Graphics/SVG/1.1/DTD/svg11.dtd"><svg class="icon" width="200px" height="200.00px" viewBox="0 0 1024 1024" version="1.1" xmlns="http://www.w3.org/2000/svg"><path fill="#515151" d="M512 853.333333a341.333333 341.333333 0 1 1 341.333333-341.333333 341.333333 341.333333 0 0 1-341.333333 341.333333z m0-648.533333a307.2 307.2 0 1 0 307.2 307.2 307.2 307.2 0 0 0-307.2-307.2z"  /><path fill="#515151" d="M512 362.837333m-25.6 0a25.6 25.6 0 1 0 51.2 0 25.6 25.6 0 1 0-51.2 0Z"  /><path fill="#515151" d="M512 703.829333a17.066667 17.066667 0 0 1-17.066667-17.066666v-204.8a17.066667 17.066667 0 1 1 34.133334 0v204.8a17.066667 17.066667 0 0 1-17.066667 17.066666z"  /></svg>