<?xml version="1.0" standalone="no"?><!DOCTYPE svg PUBLIC "-//W3C//DTD SVG 1.1//EN" "http://www.w3.org/Graphics/SVG/1.1/DTD/svg11.dtd"><svg class="icon" width="200px" height="200.00px" viewBox="0 0 1024 1024" version="1.1" xmlns="http://www.w3.org/2000/svg"><path fill="#515151" d="M875.52 48.64H148.48C93.184 48.64 48.64 93.184 48.64 148.48v727.04c0 55.296 44.544 99.84 99.84 99.84h727.04c55.296 0 99.84-44.544 99.84-99.84V148.48c0-55.296-44.544-99.84-99.84-99.84z m-139.264 76.8v209.92H287.744v-209.92h448.512zM898.56 875.52c0 12.8-10.24 23.04-23.04 23.04H148.48c-12.8 0-23.04-10.24-23.04-23.04V148.48c0-12.8 10.24-23.04 23.04-23.04h62.464V373.76c0 20.992 17.408 38.4 38.4 38.4h525.824c20.992 0 38.4-17.408 38.4-38.4V125.44H875.52c12.8 0 23.04 10.24 23.04 23.04v727.04z"  /><path fill="#515151" d="M588.8 194.56h76.8v76.8h-76.8z"  /></svg>