<?xml version="1.0" standalone="no"?><!DOCTYPE svg PUBLIC "-//W3C//DTD SVG 1.1//EN" "http://www.w3.org/Graphics/SVG/1.1/DTD/svg11.dtd"><svg class="icon" width="200px" height="200.00px" viewBox="0 0 1024 1024" version="1.1" xmlns="http://www.w3.org/2000/svg"><path fill="#515151" d="M771.820896 262.368159h-3.056717c-11.20796-53.492537-38.718408-101.890547-78.965174-139.59005-48.39801-44.831841-111.570149-69.285572-177.799005-69.285572s-129.400995 24.453731-177.799005 69.285572c-40.756219 37.699502-68.266667 86.097512-78.965174 139.59005C119.721393 263.387065 10.189055 373.938308 10.189055 509.452736c0 136.023881 111.060697 247.084577 247.084577 247.084577 20.887562 0 38.208955-17.321393 38.208955-38.208955s-17.321393-38.208955-38.208955-38.208955c-94.248756 0-170.666667-76.41791-170.666667-170.666667s76.41791-170.666667 170.666667-170.666666c6.113433 0 12.736318 0.509453 18.849751 1.018905 11.20796 1.018905 21.906468-2.547264 29.548259-9.679602 11.20796-5.60398 19.868657-17.321393 20.887562-30.567164 8.151244-95.267662 89.663682-169.647761 185.440796-169.647761 94.758209 0 175.251741 72.851741 184.931343 166.081592-1.018905 4.585075-1.018905 9.679602 0 14.774129 3.566169 20.887562 23.434826 34.642786 44.322388 30.567164 10.189055-2.037811 20.378109-2.547264 30.567165-2.547263 94.248756 0 170.666667 76.41791 170.666666 170.666666s-76.41791 170.666667-170.666666 170.666667c-20.887562 0-38.208955 17.321393-38.208956 38.208955s17.321393 38.208955 38.208956 38.208955c136.023881 0 247.084577-111.060697 247.084577-247.084577S907.844776 262.368159 771.820896 262.368159z"  /><path fill="#515151" d="M607.777114 715.271642l-56.549253 56.549254 1.528358-224.159204c0-20.887562-16.81194-38.208955-37.699503-38.718408h-0.509452c-20.887562 0-38.208955 16.81194-38.208956 37.699502l-2.03781 225.687562-57.56816-57.568159c-14.774129-14.774129-39.227861-14.774129-54.00199 0-14.774129 14.774129-14.774129 39.227861 0 54.00199l122.268657 122.268657c7.132338 7.132338 16.81194 11.20796 27.000995 11.20796s19.868657-4.075622 27.000995-11.20796l122.268657-122.268657c14.774129-14.774129 14.774129-39.227861 0-54.00199-14.264677-14.264677-38.718408-14.264677-53.492538 0.509453z"  /></svg>