<?xml version="1.0" standalone="no"?><!DOCTYPE svg PUBLIC "-//W3C//DTD SVG 1.1//EN" "http://www.w3.org/Graphics/SVG/1.1/DTD/svg11.dtd"><svg class="icon" width="200px" height="200.00px" viewBox="0 0 1024 1024" version="1.1" xmlns="http://www.w3.org/2000/svg"><path fill="#515151" d="M916.48 268.8h-163.328l-111.104-139.264c-7.168-9.216-18.432-14.336-30.208-14.336h-204.8c-11.776 0-23.04 5.632-30.208 14.848L267.776 268.8H112.64C57.344 268.8 12.8 313.344 12.8 368.64v450.56c0 55.296 44.544 99.84 99.84 99.84h803.84c55.296 0 99.84-44.544 99.84-99.84V368.64c0-55.296-44.544-99.84-99.84-99.84z m-490.496-76.8h167.424l61.44 76.8H365.568l60.416-76.8zM939.52 819.2c0 12.8-10.24 23.04-23.04 23.04H112.64c-12.8 0-23.04-10.24-23.04-23.04V368.64c0-12.8 10.24-23.04 23.04-23.04h803.84c12.8 0 23.04 10.24 23.04 23.04v450.56z"  /><path fill="#515151" d="M512 371.2c-105.984 0-192 86.016-192 192s86.016 192 192 192 192-86.016 192-192-86.016-192-192-192z m0 307.2c-63.488 0-115.2-51.712-115.2-115.2S448.512 448 512 448s115.2 51.712 115.2 115.2-51.712 115.2-115.2 115.2zM86.528 243.2H204.8c20.992 0 38.4-17.408 38.4-38.4s-17.408-38.4-38.4-38.4H86.528c-20.992 0-38.4 17.408-38.4 38.4s17.408 38.4 38.4 38.4z"  /></svg>