<?xml version="1.0" standalone="no"?><!DOCTYPE svg PUBLIC "-//W3C//DTD SVG 1.1//EN" "http://www.w3.org/Graphics/SVG/1.1/DTD/svg11.dtd"><svg class="icon" width="200px" height="200.00px" viewBox="0 0 1024 1024" version="1.1" xmlns="http://www.w3.org/2000/svg"><path fill="#515151" d="M913.92 145.92h-81.92v-81.92c0-20.992-17.408-38.4-38.4-38.4s-38.4 17.408-38.4 38.4v81.92h-486.4v-81.92C268.8 43.008 251.392 25.6 230.4 25.6s-38.4 17.408-38.4 38.4v81.92h-81.92C54.784 145.92 10.24 190.464 10.24 245.76v155.136c-1.536 4.096-2.56 8.704-2.56 13.824s1.024 9.216 2.56 13.824V896c0 55.296 44.544 99.84 99.84 99.84h803.84c55.296 0 99.84-44.544 99.84-99.84V245.76c0-55.296-44.544-99.84-99.84-99.84z m-803.84 76.8h81.92v71.68c0 20.992 17.408 38.4 38.4 38.4s38.4-17.408 38.4-38.4v-71.68h486.4v71.68c0 20.992 17.408 38.4 38.4 38.4s38.4-17.408 38.4-38.4v-71.68h81.92c12.8 0 23.04 10.24 23.04 23.04v130.56H87.04V245.76c0-12.8 10.24-23.04 23.04-23.04z m803.84 696.32h-803.84c-12.8 0-23.04-10.24-23.04-23.04V453.12h849.92V896c0 12.8-10.24 23.04-23.04 23.04z"  /></svg>