<?xml version="1.0" standalone="no"?><!DOCTYPE svg PUBLIC "-//W3C//DTD SVG 1.1//EN" "http://www.w3.org/Graphics/SVG/1.1/DTD/svg11.dtd"><svg class="icon" width="200px" height="200.00px" viewBox="0 0 1024 1024" version="1.1" xmlns="http://www.w3.org/2000/svg"><path fill="#515151" d="M1010.176 368.64c-7.168-7.168-16.896-11.264-27.136-11.264h-64V279.04c0-61.952-50.176-112.128-111.616-112.128h-284.16L489.984 97.28c-6.144-13.312-19.968-22.016-34.816-22.016H107.52c-55.296 0-99.84 44.544-99.84 99.84v680.96c0 55.296 44.544 99.84 99.84 99.84h814.08c55.296 0 99.84-44.544 99.84-99.84v-460.8c0-9.728-4.096-19.456-11.264-26.624z m-202.752-124.928c19.456 0 34.816 15.872 34.816 35.328v77.824h-214.016c-8.704 0-16.896-5.12-20.992-13.312l-48.128-100.352h248.32z m137.216 612.864c0 12.8-10.24 23.04-23.04 23.04H107.52c-12.8 0-23.04-10.24-23.04-23.04v-680.96c0-12.8 10.24-23.04 23.04-23.04h323.584l107.008 224.768c16.384 34.304 51.712 56.832 90.112 56.832h316.416v422.4z"  /></svg>