<?xml version="1.0" standalone="no"?><!DOCTYPE svg PUBLIC "-//W3C//DTD SVG 1.1//EN" "http://www.w3.org/Graphics/SVG/1.1/DTD/svg11.dtd"><svg class="icon" width="200px" height="200.00px" viewBox="0 0 1024 1024" version="1.1" xmlns="http://www.w3.org/2000/svg"><path fill="#515151" d="M698.969154 1004.131343c-5.094527 0-10.189055-1.018905-14.774129-3.056716-14.264677-6.113433-22.925373-19.868657-22.925373-35.152239V58.587065c0-20.887562 17.321393-38.208955 38.208955-38.208956s38.208955 17.321393 38.208955 38.208956v818.181094l176.270647-168.628856c15.283582-14.774129 39.227861-14.264677 54.00199 1.018906 14.774129 15.283582 14.264677 39.227861-1.018905 54.00199l-241.480597 230.78209c-7.641791 6.622886-16.81194 10.189055-26.491543 10.189054zM324.521393 1004.131343c-20.887562 0-38.208955-17.321393-38.208955-38.208955V147.741294L109.532338 316.879602c-15.283582 14.774129-39.227861 13.755224-54.00199-1.018905-14.774129-15.283582-14.264677-39.227861 1.018906-54.001991L298.029851 31.076617c11.20796-10.698507 27.510448-13.755224 41.265671-7.641791 14.264677 6.113433 22.925373 19.868657 22.925374 35.152239v907.844776c0.509453 20.887562-16.81194 37.699502-37.699503 37.699502z"  /></svg>