<?xml version="1.0" standalone="no"?><!DOCTYPE svg PUBLIC "-//W3C//DTD SVG 1.1//EN" "http://www.w3.org/Graphics/SVG/1.1/DTD/svg11.dtd"><svg class="icon" width="200px" height="200.00px" viewBox="0 0 1024 1024" version="1.1" xmlns="http://www.w3.org/2000/svg"><path fill="#515151" d="M896 89.6H128C72.704 89.6 28.16 134.144 28.16 189.44v645.12c0 55.296 44.544 99.84 99.84 99.84h768c55.296 0 99.84-44.544 99.84-99.84V189.44c0-55.296-44.544-99.84-99.84-99.84z m-768 76.8h768c12.8 0 23.04 10.24 23.04 23.04v459.776l-211.968-211.968c-11.264-11.264-26.112-17.408-41.472-17.408s-30.72 6.144-41.472 17.408L363.52 697.856l-96.768-96.768c-23.04-23.04-60.416-23.04-83.456 0l-78.848 78.848V189.44c0.512-12.8 10.752-23.04 23.552-23.04z m768 691.2H128c-12.8 0-23.04-10.24-23.04-23.04v-45.568L225.28 668.672l111.104 111.104c7.168 7.168 16.896 11.264 27.136 11.264s19.968-4.096 27.136-11.264L665.6 504.832l253.44 253.44V834.56c0 12.8-10.24 23.04-23.04 23.04z"  /><path fill="#515151" d="M289.28 386.56m-64 0a64 64 0 1 0 128 0 64 64 0 1 0-128 0Z"  /></svg>