<?xml version="1.0" standalone="no"?><!DOCTYPE svg PUBLIC "-//W3C//DTD SVG 1.1//EN" "http://www.w3.org/Graphics/SVG/1.1/DTD/svg11.dtd"><svg class="icon" width="200px" height="200.00px" viewBox="0 0 1024 1024" version="1.1" xmlns="http://www.w3.org/2000/svg"><path fill="#515151" d="M243.0976 664.2688A157.2352 157.2352 0 1 1 400.3328 506.88a157.6448 157.6448 0 0 1-157.2352 157.3888z m0-252.3136a96.3072 96.3072 0 1 0 96.3072 96.3072 96.512 96.512 0 0 0-96.3072-96.3072zM812.3392 366.848A136.4992 136.4992 0 1 1 948.8384 230.4a136.2944 136.2944 0 0 1-136.4992 136.448z m0-213.2992a75.5712 75.5712 0 1 0 75.5712 75.5712A75.9296 75.9296 0 0 0 812.3392 153.6zM718.4896 931.2256A136.4992 136.4992 0 1 1 855.04 794.7264a136.2944 136.2944 0 0 1-136.5504 136.4992z m0-213.2992A75.5712 75.5712 0 1 0 794.0608 793.6a75.1616 75.1616 0 0 0-75.5712-75.6736zM384.512 459.52a29.2352 29.2352 0 0 1-26.8288-17.0496 30.2592 30.2592 0 0 1 13.4144-40.2432l319.3856-157.2352a30.0032 30.0032 0 1 1 26.8288 53.6576L397.8752 457.0624a43.8272 43.8272 0 0 1-13.4144 2.4576zM596.5824 766.6688a28.0064 28.0064 0 0 1-17.0496-5.12l-227.9424-150.8864a31.0784 31.0784 0 0 1-8.5504-42.6496 30.0544 30.0544 0 0 1 42.6496-8.5504l227.9424 151.1424a31.0784 31.0784 0 0 1 8.5504 42.6496 31.7952 31.7952 0 0 1-25.6 13.4144z" /></svg>