<?xml version="1.0" standalone="no"?><!DOCTYPE svg PUBLIC "-//W3C//DTD SVG 1.1//EN" "http://www.w3.org/Graphics/SVG/1.1/DTD/svg11.dtd"><svg class="icon" width="200px" height="200.00px" viewBox="0 0 1024 1024" version="1.1" xmlns="http://www.w3.org/2000/svg"><path fill="#515151" d="M865.28 260.608H187.904c-18.432 0-33.28-14.848-33.28-33.28s14.848-33.28 33.28-33.28H865.28c18.432 0 33.28 14.848 33.28 33.28s-14.848 33.28-33.28 33.28zM865.28 527.36H187.904c-18.432 0-33.28-14.848-33.28-33.28s14.848-33.28 33.28-33.28H865.28c18.432 0 33.28 14.848 33.28 33.28s-14.848 33.28-33.28 33.28zM865.28 821.76H187.904c-18.432 0-33.28-14.848-33.28-33.28s14.848-33.28 33.28-33.28H865.28c18.432 0 33.28 14.848 33.28 33.28s-14.848 33.28-33.28 33.28z" /></svg>