<?xml version="1.0" standalone="no"?><!DOCTYPE svg PUBLIC "-//W3C//DTD SVG 1.1//EN" "http://www.w3.org/Graphics/SVG/1.1/DTD/svg11.dtd"><svg class="icon" width="200px" height="200.00px" viewBox="0 0 1024 1024" version="1.1" xmlns="http://www.w3.org/2000/svg"><path fill="#515151" d="M864.0512 553.6256a34.6624 34.6624 0 0 1-25.2928-10.8544L517.12 221.3888 195.9424 542.72a35.84 35.84 0 0 1-50.5856-50.5856l346.7264-346.5728a34.9184 34.9184 0 0 1 50.5856 0l346.6752 346.6752a34.9184 34.9184 0 0 1 0 50.5856 32.768 32.768 0 0 1-25.2928 10.8032zM517.12 889.4976a35.4816 35.4816 0 0 1-35.84-36.096V170.8032a36.096 36.096 0 1 1 72.2432 0v682.5984a36.1984 36.1984 0 0 1-36.4032 36.096z" /></svg>