<?xml version="1.0" standalone="no"?><!DOCTYPE svg PUBLIC "-//W3C//DTD SVG 1.1//EN" "http://www.w3.org/Graphics/SVG/1.1/DTD/svg11.dtd"><svg class="icon" width="200px" height="200.00px" viewBox="0 0 1024 1024" version="1.1" xmlns="http://www.w3.org/2000/svg"><path fill="#515151" d="M291.84 417.7408h-2.304a30.72 30.72 0 0 1-27.5968-32.1536c8.0384-99.9424 73.5232-181.5552 170.0352-215.04 97.6384-33.3312 198.7584-6.912 266.5472 66.56a243.8656 243.8656 0 0 1 63.3344 148.48 29.952 29.952 0 1 1-59.7504 4.608 195.4816 195.4816 0 0 0-48.2304-112.64c-60.8768-66.56-143.616-70.0928-202.24-50.5344C378.112 252.3136 328.704 314.3168 322.9696 389.12A33.024 33.024 0 0 1 291.84 417.7408zM782.5408 807.2192H240.2304a28.928 28.928 0 0 1-22.9888-10.24 30.2592 30.2592 0 0 1-6.912-24.1152L261.12 385.5872a30.0544 30.0544 0 1 1 59.7504 6.912l-46.08 352.7168h473.344l-46.08-352.7168a30.0544 30.0544 0 1 1 59.7504-6.912l50.5344 387.1744a30.2592 30.2592 0 0 1-6.912 24.1152 30.72 30.72 0 0 1-22.9888 10.24zM421.7856 464.8448h-2.304a30.72 30.72 0 0 1-27.5968-32.1536 158.72 158.72 0 0 1 133.12-142.4896 30.208 30.208 0 0 1 9.216 59.7504c-46.08 8.0384-80.4352 43.6736-83.8656 88.4736a27.2896 27.2896 0 0 1-28.5696 26.4192zM395.3664 670.72h-3.4304a30.72 30.72 0 0 1-26.4192-33.3312l26.4192-203.3664a30.0544 30.0544 0 1 1 59.7504 6.912l-26.4704 203.1616a30.72 30.72 0 0 1-29.8496 26.624zM545.8944 121.2928H476.928a29.8496 29.8496 0 1 1 0-59.7504h68.9152a29.8496 29.8496 0 1 1 0 59.7504zM511.3856 963.4816a84.8384 84.8384 0 0 1-85.0432-85.0432 29.6448 29.6448 0 0 1 29.8496-29.8496 30.4128 30.4128 0 0 1 29.8496 29.8496 24.2688 24.2688 0 0 0 24.1152 24.1152 25.088 25.088 0 0 0 24.1152-24.1152 29.8496 29.8496 0 0 1 59.7504 0 82.176 82.176 0 0 1-82.6368 85.0432z" /></svg>