<?xml version="1.0" standalone="no"?><!DOCTYPE svg PUBLIC "-//W3C//DTD SVG 1.1//EN" "http://www.w3.org/Graphics/SVG/1.1/DTD/svg11.dtd"><svg class="icon" width="200px" height="200.00px" viewBox="0 0 1024 1024" version="1.1" xmlns="http://www.w3.org/2000/svg"><path fill="#515151" d="M511.3856 889.4976a34.6624 34.6624 0 0 1-25.2928-10.8544l-346.6752-345.4976a35.84 35.84 0 1 1 50.5856-50.5856L511.3856 803.84l321.4336-321.4336a35.84 35.84 0 1 1 50.5856 50.5856l-346.6752 346.6752a36.5568 36.5568 0 0 1-25.2928 9.6256zM511.3856 889.4976a35.4816 35.4816 0 0 1-36.096-36.096V170.8032a36.096 36.096 0 1 1 72.2432 0v682.5984a35.4816 35.4816 0 0 1-36.1472 36.096z" /></svg>